<svg xmlns="http://www.w3.org/2000/svg" xmlns:xlink="http://www.w3.org/1999/xlink" width="718" height="1524" viewBox="0 0 718 1524">
  <defs>
    <polygon id="supplier-man-a" points=".06 .314 588.878 .314 588.878 116.94 .06 116.94"/>
  </defs>
  <g fill="none" fill-rule="evenodd">
    <path fill="#FFF" d="M47.558,1411.57 C47.558,1411.57 83.247,1374.37 97.809,1356.97 C112.372,1339.56 114.343,1394.27 114.343,1394.27 C114.343,1394.27 91.903,1414.47 74.195,1434.68 C56.487,1454.89 35.421,1436.2 35.421,1436.2 L47.558,1411.57"/>
    <g transform="translate(0 1407)">
      <mask id="supplier-man-b" fill="#fff">
        <use xlink:href="#supplier-man-a"/>
      </mask>
      <polyline fill="#FFF" points="449.583 29.75 448.16 75.66 485.836 79.21 483.406 14.22 449.583 29.75" mask="url(#supplier-man-b)"/>
      <path fill="#161616" d="M579.485 116.99L491.827 113.56C491.64 107.98 487.194 103.41 481.529 103.17L481.293 103.15C475.6 102.9 470.74 107.12 470.112 112.71L431.613 111.2C428.232 111.05 428.638 102.76 428.786 99.38L429.208 89.77C430.157 68.14 440.779 55.42 445.895 51.38 445.895 51.38 449.262 55.79 466.637 56.55 482.482 57.24 486.138 54.09 487.591 53.46 501.449 57.57 525.427 72.59 526.304 72.9 535.53 76.19 552.667 82.46 564.109 82.96 573.857 83.39 584.461 86.97 587.798 96.53 590.697 104.83 587.705 117.36 579.485 116.99M86.259 108.72L47.596 77.21C50.776 72.63 49.941 66.31 45.546 62.73L45.362 62.58C40.946 58.98 34.529 59.46 30.689 63.56L.715 39.35C-1.908 37.21 3.372 30.8 5.507 28.19L11.59 20.73C22.848 6.92 35.759 1.86 43.609.4 45.804-.01 47.981 1.07 49.037 3.04 50.493 5.75 53.826 10.23 61.45 16.44 68.334 22.06 72.872 24.42 75.805 25.47 78.642 26.49 80.855 28.74 81.914 31.56 87.488 46.42 95.795 62.89 96.124 63.66 103.714 81.37 122.153 76.61 131.029 83.85 136.533 88.34 141.238 97.78 142.222 106.32 142.764 111.02 138.917 115.08 134.183 114.87L98.29 113.3C93.891 113.11 89.672 111.5 86.259 108.72" mask="url(#supplier-man-b)"/>
    </g>
    <path fill="#3A3A3A" d="M514.529,1187.62 L514.522,1188.01 L511.736,1438.92 L511.722,1440.49 L511.687,1443.46 L507.865,1443.93 L505.849,1444.17 L486.328,1446.55 L486.189,1446.57 L482.895,1446.97 L482.214,1447.05 C481.762,1447.11 481.303,1447.16 480.852,1447.21 C471.789,1448.16 462.63,1447.65 453.727,1445.68 L426.784,1439.74 L431.204,1206.74 L431.232,1205.22 L329.691,1091.21 L329.685,1091.2 L318.67,1125.92 C318.614,1126.1 318.559,1126.27 318.503,1126.45 L318.42,1126.7 L281.219,1243.91 L280.009,1247.73 L119.975,1416.18 L101.455,1405.38 C90.315,1398.9 80.884,1389.86 73.927,1379.02 L63.33,1362.5 L196.546,1214.29 L220.243,963.526 L220.396,961.872 L222.655,961.969 L304.34,965.555 L326.912,966.549 L365.524,935.811 L367.282,934.407 L367.386,934.595 L388.082,971.309 L454.29,1076.15 L454.297,1076.16 L460.191,1085.49 L460.226,1085.55 L506.266,1158.45 C511.77,1167.18 514.64,1177.31 514.529,1187.62"/>
    <path fill="#999" d="M486.189,1446.57 L486.328,1446.55 L505.849,1444.17 L507.865,1443.93 L511.687,1443.46 L511.722,1440.49 L511.736,1438.92 L514.522,1188.01 C514.536,1188.39 514.536,1188.78 514.529,1189.17 L511.736,1440.47 L511.687,1443.46 L507.865,1443.93 L505.849,1444.17 L486.328,1446.55 L486.189,1446.57"/>
    <g transform="translate(101)">
      <path fill="#232323" d="M385.189,1446.57 L369.636,1276.05 C367.322,1250.72 330.232,1205.22 330.232,1205.22 L228.691,1091.21 L228.685,1091.2 L217.67,1125.92 C217.614,1126.1 217.559,1126.27 217.503,1126.45 L217.42,1126.7 L196.293,1193.26 L196.029,1194.08 L180.219,1243.91 L179.009,1247.73 L18.975,1416.18 L1.089,1405.75 L0.455,1405.38 C0.455,1405.38 94.604,1296.55 109.651,1284.32 C145.04,1255.54 111.342,1263.6 134.817,1242.78 C139.002,1239.07 143.294,1236.22 147.587,1233.86 C156.291,1229.06 161.647,1219.84 161.183,1209.91 C160.776,1201.22 160.956,1190.23 161.969,1176.15 C164.557,1140.3 174.884,1095.61 186.392,1058.1 C190.55,1044.55 187.282,1029.82 177.761,1019.31 L177.038,1018.52 L212.492,978.78 L211.431,977.247 L235.143,971.166 L285.016,969.194 L287.082,972.859 L353.29,1077.7 L353.297,1077.71 L359.191,1087.04 L359.226,1087.1 L405.266,1160 C410.562,1168.4 413.418,1178.1 413.522,1188.01 L410.736,1438.92 L410.722,1440.49 L410.687,1443.46 L406.865,1443.93 L404.849,1444.17 L385.328,1446.55 L385.189,1446.57"/>
      <path fill="#BABABA" d="M488.075,351.155 L316.484,86.317 C314.345,83.015 315.287,78.604 318.589,76.466 L434.169,1.58 C437.471,-0.559 441.881,0.383 444.021,3.685 L615.611,268.523 C617.75,271.825 616.808,276.235 613.506,278.374 L497.926,353.26 C494.625,355.399 490.214,354.457 488.075,351.155"/>
      <path fill="#E5E5E5" d="M485.095,350.771 L313.505,85.933 C311.366,82.631 312.308,78.22 315.609,76.081 L431.19,1.196 C434.492,-0.943 438.902,-0.001 441.041,3.301 L612.632,268.139 C614.771,271.441 613.829,275.851 610.527,277.99 L494.947,352.876 C491.645,355.015 487.234,354.072 485.095,350.771"/>
    </g>
    <path fill="#F2EC83" d="M558.68,137.586 C547.54,153.529 527.935,160.033 510.179,155.273 C505.258,153.952 500.484,151.77 496.064,148.685 C482.687,139.338 475.952,124.028 476.946,108.857 C477.46,100.934 480.08,93.047 484.959,86.069 C499.185,65.714 527.219,60.745 547.581,74.971 C567.937,89.197 572.905,117.231 558.68,137.586"/>
    <polyline fill="#BABABA" points="575.276 157.4 585.537 150.753 663.666 271.34 653.406 277.988 575.276 157.4"/>
    <path fill="#69B25F" d="M523.258,146.795 L510.179,155.273 C505.258,153.952 500.484,151.77 496.064,148.685 C482.687,139.338 475.952,124.028 476.946,108.857 L492.249,98.94 C498.01,95.208 505.703,96.855 509.435,102.609 L526.927,129.615 C530.659,135.369 529.012,143.063 523.258,146.795"/>
    <polyline fill="#BABABA" points="540.282 180.082 545.241 176.868 605.293 269.555 600.334 272.768 540.282 180.082"/>
    <polyline fill="#BABABA" points="527.116 188.612 531.932 185.491 578.365 257.159 573.55 260.279 527.116 188.612"/>
    <path fill="#E5BE80" d="M548.096,104.402 C548.096,110.156 544.69,115.112 539.784,117.37 C537.97,118.197 535.955,118.663 533.835,118.663 C525.961,118.663 519.582,112.276 519.582,104.402 C519.582,99.628 521.931,95.396 525.537,92.817 C527.873,91.135 530.742,90.149 533.835,90.149 C541.709,90.149 548.096,96.528 548.096,104.402"/>
    <path fill="#494538" d="M548.096,104.402 C548.096,110.156 544.69,115.112 539.784,117.37 L539.777,117.363 C539.777,117.363 538.422,109.246 543.259,106.827 C535.371,105.841 530.5,103.957 525.537,92.817 C527.873,91.135 530.742,90.149 533.835,90.149 C541.709,90.149 548.096,96.528 548.096,104.402"/>
    <path fill="#C68D4E" d="M561.104,383.718 L575.906,309.721 L579.013,311.968 C583.031,316.355 585.448,318.991 585.569,324.939 L586.095,350.771 C587.335,352.531 589.166,354.176 592.675,353.996 C594.459,354.661 596.824,354.445 598.271,353.633 L598.926,353.26 L608.128,347.298 L612.478,370.193 L573.46,409.522 L561.104,383.718"/>
    <path fill="#AD7844" d="M586.095,350.771 L593.678,365.434 C594.964,367.921 598.544,367.848 599.728,365.311 L608.128,347.298 L598.926,353.26 C597.08,354.469 594.492,354.634 592.675,353.996 C590.326,354.184 587.907,353.198 586.459,351.258 L586.095,350.771"/>
    <path fill="#879B8E" d="M594.269,394.99 C593.406,418.939 535.447,530.437 535.315,538.172 C535.191,545.9 487.724,604.263 470.803,623.728 C440.593,658.496 419.946,692.869 403.83,714.704 C399.639,720.382 395.754,725.212 392.085,728.985 C392.085,728.985 345.391,692.903 341.791,658.017 C338.42,625.25 359.929,618.606 367.886,611.142 C375.534,603.969 453.772,556.902 468.85,535.565 C469.947,534.013 471.373,532.744 473.016,531.79 C478.526,528.592 478.89,524.747 478.452,522.416 C478.15,520.805 478.493,519.143 479.397,517.775 L483.923,510.93 C483.923,510.93 541.125,406.77 542.202,383.739 C552.696,381.321 582.983,387.436 594.269,394.99"/>
    <path fill="#65746A" d="M410.052,706.015 C404.896,696.973 398.698,686.625 393.6,678.472 L393.6,676.788 C393.6,676.788 518.15,561.953 535.315,538.172 C535.191,545.9 487.724,604.263 470.803,623.728 C444.343,654.18 425.22,684.327 410.052,706.015"/>
    <polyline fill="#879B8E" points="366.29 633.399 382.796 671.62 378.039 708.759 286.934 624.828 292.427 615.137 317.443 611.158 364.007 621.113 366.29 633.399"/>
    <path fill="#BFBFBF" d="M358.733,617.902 L359.255,615.173 L360.789,616.437 C360.116,616.907 359.429,617.394 358.733,617.902"/>
    <path fill="#65746A" d="M366.286,633.382 L364.008,621.116 L364.009,621.115 L364.007,621.114 L364.007,621.113 L364.002,621.112 L358.581,618.696 L358.733,617.902 C359.429,617.394 360.116,616.907 360.789,616.437 L366.601,621.226 L365.809,628.078 L367.49,631.852 L367.529,631.943 C366.456,629.559 365.809,628.078 365.809,628.078 L366.093,631.237 C366.098,631.29 366.103,631.343 366.108,631.396 L366.286,633.382"/>
    <path fill="#65746A" d="M378.534,697.448 C374.023,690.485 369.116,683.883 364.009,677.663 L364.002,677.649 C361.161,674.19 358.26,670.853 355.329,667.64 C354.172,661.544 353.312,655.925 353.327,651.505 L293.874,615.924 L343.501,636.174 L364.008,621.116 L366.286,633.382 L366.288,633.401 L368.31,641.665 C374.881,656.637 378.578,669.836 378.555,694.394 C378.555,694.396 378.555,694.398 378.555,694.4 C378.555,694.498 378.555,694.598 378.554,694.696 C378.554,694.698 378.554,694.695 378.554,694.697 C378.554,694.747 378.554,694.795 378.554,694.845 C378.554,694.847 378.554,694.848 378.554,694.85 C378.554,694.895 378.554,694.941 378.554,694.987 C378.554,694.994 378.554,695.002 378.554,695.01 C378.553,695.052 378.553,695.098 378.553,695.141 C378.553,695.147 378.553,695.152 378.553,695.158 C378.553,695.2 378.553,695.244 378.552,695.287 C378.552,695.295 378.552,695.304 378.552,695.312 C378.552,695.354 378.552,695.397 378.552,695.439 C378.552,695.447 378.552,695.454 378.552,695.461 C378.551,695.504 378.551,695.544 378.551,695.587 C378.551,695.596 378.551,695.606 378.551,695.615 C378.551,695.658 378.55,695.7 378.55,695.742 C378.55,695.75 378.55,695.756 378.55,695.764 C378.55,695.807 378.549,695.852 378.549,695.895 C378.549,695.902 378.549,695.907 378.549,695.915 C378.549,695.959 378.548,696.001 378.548,696.046 C378.548,696.053 378.548,696.06 378.548,696.068 C378.547,696.108 378.547,696.151 378.547,696.191 C378.547,696.202 378.547,696.212 378.547,696.222 C378.546,696.266 378.546,696.309 378.545,696.353 C378.545,696.359 378.545,696.366 378.545,696.372 C378.545,696.415 378.544,696.456 378.544,696.5 C378.544,696.509 378.544,696.518 378.544,696.527 C378.543,696.565 378.543,696.603 378.543,696.642 C378.543,696.656 378.542,696.67 378.542,696.683 C378.542,696.719 378.542,696.755 378.541,696.79 C378.541,696.805 378.541,696.82 378.541,696.835 C378.54,696.883 378.54,696.932 378.539,696.98 C378.539,696.982 378.539,696.982 378.539,696.984 C378.539,697.034 378.538,697.084 378.537,697.134 C378.537,697.136 378.537,697.137 378.537,697.139 C378.537,697.189 378.536,697.24 378.536,697.29 C378.536,697.292 378.536,697.292 378.536,697.293 C378.535,697.345 378.534,697.397 378.534,697.448 M364.007,621.114 L364.002,621.112 L364.007,621.113 L364.007,621.114"/>
    <polyline fill="#AD7844" points="368.112 591.159 361.863 601.443 355.877 632.943 298.584 617.088 309.632 579.563 312.395 546.356 334.021 546.201 369.23 575.929 368.112 591.159"/>
    <path fill="#AD5717" d="M398.625,807.891 L398.347,811.838 L391.953,903.565 C391.953,903.565 399.299,931.245 393.28,942.114 C387.255,952.976 228.618,922.1 228.618,922.1 C228.618,922.1 237.652,853.66 237.722,820.275 C237.798,786.889 224.295,770.996 224.156,735.275 C224.01,699.561 219.194,666.106 250.182,639.323 C283.63,610.405 292.428,615.138 292.428,615.138 C292.428,615.138 332.124,638.829 364.002,677.649 L364.009,677.663 C369.116,683.883 374.023,690.485 378.534,697.448 C378.874,670.908 375.148,657.245 368.31,641.665 L366.288,633.401 L365.809,628.078 C365.809,628.078 378.589,657.329 384.775,665.161 C390.959,673 419.821,721.195 420.446,726.505 C421.072,731.814 407.603,800.295 398.625,807.891"/>
    <path fill="#68340E" d="M252.343,805.089 C252.727,803.992 253.136,802.868 253.567,801.719 C253.713,801.31 253.865,800.906 254.025,800.496 C254.505,799.218 255.019,797.911 255.554,796.584 C255.978,795.521 256.416,794.437 256.874,793.345 C257.333,792.254 257.798,791.142 258.278,790.024 C258.785,788.821 259.314,787.612 259.856,786.382 C260.565,784.777 261.287,783.151 262.038,781.51 C262.851,779.718 263.685,777.903 264.54,776.076 C279.662,743.705 300.191,707.15 302.352,700.458 C303.242,697.713 304.951,694.571 306.696,690.951 C306.145,692.952 288.373,757.837 288.682,791.334 L252.343,805.089"/>
    <path fill="#4C574F" d="M378.536 697.293C378.536 697.292 378.536 697.292 378.536 697.29 378.536 697.292 378.536 697.292 378.536 697.293M378.537 697.139C378.537 697.137 378.537 697.136 378.537 697.134 378.537 697.136 378.537 697.137 378.537 697.139M378.539 696.984C378.539 696.982 378.539 696.982 378.539 696.98 378.539 696.982 378.539 696.982 378.539 696.984M378.541 696.835C378.541 696.82 378.541 696.805 378.541 696.79 378.541 696.804 378.541 696.821 378.541 696.835M378.542 696.683C378.542 696.67 378.543 696.656 378.543 696.642 378.543 696.656 378.542 696.669 378.542 696.683M378.544 696.527C378.544 696.518 378.544 696.509 378.544 696.5 378.544 696.508 378.544 696.519 378.544 696.527M378.545 696.372C378.545 696.366 378.545 696.359 378.545 696.353 378.545 696.359 378.545 696.366 378.545 696.372M378.547 696.222C378.547 696.212 378.547 696.202 378.547 696.191 378.547 696.202 378.547 696.211 378.547 696.222M378.548 696.068C378.548 696.06 378.548 696.053 378.548 696.046 378.548 696.054 378.548 696.06 378.548 696.068M378.549 695.915C378.549 695.907 378.549 695.902 378.549 695.895 378.549 695.901 378.549 695.909 378.549 695.915M378.55 695.764C378.55 695.756 378.55 695.75 378.55 695.742 378.55 695.75 378.55 695.756 378.55 695.764M378.551 695.615C378.551 695.606 378.551 695.596 378.551 695.587 378.551 695.595 378.551 695.607 378.551 695.615M378.552 695.461C378.552 695.454 378.552 695.447 378.552 695.439 378.552 695.447 378.552 695.454 378.552 695.461M378.552 695.312C378.552 695.304 378.552 695.295 378.552 695.287 378.552 695.295 378.552 695.304 378.552 695.312M378.553 695.158C378.553 695.152 378.553 695.147 378.553 695.141 378.553 695.147 378.553 695.151 378.553 695.158M378.554 695.01C378.554 695.002 378.554 694.994 378.554 694.987 378.554 694.995 378.554 695.002 378.554 695.01M378.554 694.85C378.554 694.848 378.554 694.847 378.554 694.845 378.554 694.847 378.554 694.848 378.554 694.85M378.554 694.697C378.554 694.695 378.554 694.698 378.554 694.696L378.554 694.697M378.555 694.4C378.555 694.398 378.555 694.396 378.555 694.394 378.555 694.396 378.555 694.398 378.555 694.4M366.108 631.396C366.103 631.343 366.098 631.29 366.093 631.237L365.809 628.078 366.108 631.396"/>
    <path fill="#824111" d="M306.607,784.549 C310.782,775.717 316.329,765.48 322.131,759.029 C334.098,745.734 360.643,728.242 364.007,714.704 C367.371,701.167 364.009,677.663 364.009,677.663 C369.116,683.883 374.023,690.485 378.534,697.448 C378.534,697.397 378.535,697.345 378.536,697.293 C378.536,697.292 378.536,697.292 378.536,697.29 C378.536,697.24 378.537,697.188 378.537,697.139 C378.537,697.137 378.537,697.136 378.537,697.134 C378.538,697.084 378.539,697.034 378.539,696.984 C378.539,696.982 378.539,696.982 378.539,696.98 C378.54,696.932 378.54,696.883 378.541,696.835 C378.541,696.821 378.541,696.804 378.541,696.79 C378.542,696.754 378.542,696.719 378.542,696.683 C378.542,696.669 378.543,696.656 378.543,696.642 C378.543,696.604 378.543,696.564 378.544,696.527 C378.544,696.519 378.544,696.508 378.544,696.5 C378.544,696.456 378.545,696.415 378.545,696.372 C378.545,696.366 378.545,696.359 378.545,696.353 C378.546,696.309 378.546,696.266 378.547,696.222 C378.547,696.211 378.547,696.202 378.547,696.191 C378.547,696.151 378.547,696.108 378.548,696.068 C378.548,696.06 378.548,696.054 378.548,696.046 C378.548,696.003 378.549,695.958 378.549,695.915 C378.549,695.909 378.549,695.901 378.549,695.895 C378.549,695.852 378.55,695.807 378.55,695.764 C378.55,695.756 378.55,695.75 378.55,695.742 C378.55,695.699 378.551,695.658 378.551,695.615 C378.551,695.607 378.551,695.595 378.551,695.587 C378.551,695.546 378.551,695.503 378.552,695.461 C378.552,695.454 378.552,695.447 378.552,695.439 C378.552,695.396 378.552,695.354 378.552,695.312 C378.552,695.304 378.552,695.295 378.552,695.287 C378.553,695.244 378.553,695.2 378.553,695.158 C378.553,695.151 378.553,695.147 378.553,695.141 C378.553,695.097 378.553,695.054 378.554,695.01 C378.554,695.002 378.554,694.995 378.554,694.987 C378.554,694.941 378.554,694.895 378.554,694.85 C378.554,694.848 378.554,694.847 378.554,694.845 C378.554,694.797 378.554,694.745 378.554,694.697 L378.554,694.696 C378.555,694.598 378.555,694.498 378.555,694.4 C378.555,694.398 378.555,694.396 378.555,694.394 C378.577,670.674 375.129,657.55 368.972,643.19 C368.537,642.175 368.178,641.125 367.916,640.051 L366.805,635.513 C366.473,634.159 366.241,632.783 366.108,631.396 L365.809,628.078 C365.809,628.078 378.589,657.329 384.775,665.161 C390.959,673 419.821,721.195 420.446,726.505 C420.46,726.624 420.467,726.775 420.467,726.957 C420.468,732.031 415.082,760.892 408.903,782.868 L399.161,757.131 C398.082,754.283 395.373,752.528 392.498,752.528 C391.66,752.528 390.807,752.677 389.977,752.991 L306.607,784.549"/>
    <path fill="#C68D4E" d="M416.36,543.645 L409.129,544.224 L410.152,547.11 C410.152,547.11 409.873,547.251 409.838,547.71 C409.803,548.335 411.071,549.18 411.175,550.355 C411.252,551.23 411.398,552.217 411.662,553.238 C411.996,554.545 412.524,555.928 413.33,557.221 C413.649,557.721 389.277,560.821 389.277,560.814 C402.218,566.227 404.9,572.711 403.705,574.031 C402.405,575.47 401.689,575.157 401.105,574.914 C400.772,574.775 400.473,574.657 400.14,574.907 C391.974,581.037 389.09,592.538 377.915,594.54 C371.118,595.756 361.841,588.132 354.39,584.185 C321.06,566.512 328.496,569.25 327.969,551.362 C324.987,557.026 314.945,569.987 305.181,568.549 C298.801,567.61 297.481,556.178 292.637,551.925 C283.387,543.801 289.329,532.849 287.376,529.012 C282.796,520.013 261.857,519.992 261.239,510.499 C259.439,482.659 274.012,455.104 300.504,441.643 C326.961,428.181 356.086,434.95 379.25,450.496 C382.662,452.783 386.359,456.883 390.028,461.782 C398.138,472.61 406.088,487.35 410.321,495.029 C410.751,495.815 410.96,496.69 410.932,497.552 C410.918,498.448 410.661,499.338 410.154,500.11 C409.348,501.353 408.347,503.091 407.367,505.328 C406.464,507.372 405.581,509.825 404.865,512.688 C404.727,513.251 409.138,512.187 410.152,513.924 C413.127,519.032 416.068,530.312 419.661,535.614 C420.279,536.518 420.62,537.532 420.704,538.554 C420.912,541.16 418.778,542.658 416.36,543.645"/>
    <path fill="#664818" d="M316.153,529.323 C317.173,514.463 333.021,521.199 333.021,521.199 C333.021,521.199 343.72,535.301 345.287,544.543 L350.982,543.003 C350.982,543.003 338.668,510.632 340.868,507.684 C343.068,504.737 348.942,495.803 350.895,492.947 C352.848,490.09 350.352,484.498 350.352,484.498 C350.352,484.498 358.093,464.28 359.46,464.34 C360.828,464.4 376.389,446.32 390.027,461.782 C389.959,446.034 385.052,436.225 368.765,430.941 C352.478,425.658 290.969,416.974 272.156,460.463 C272.156,460.463 253.707,464.371 256.615,512.622 C263.479,533.179 309.632,579.563 309.632,579.563 L327.965,551.361 L323.164,546.801 C318.396,542.272 315.703,535.883 316.153,529.323"/>
    <path fill="#C68D4E" d="M367.439,461.162 L299.289,458.765 C299.289,458.765 341.521,461.52 366.257,464.593 C374.209,460.373 367.439,461.162 367.439,461.162"/>
    <polyline fill="#879B8E" points="301.115 593.1 292.427 615.137 350.913 646.753 364.007 621.113 301.115 593.1"/>
    <path fill="#C68D4E" d="M270.292,1003.99 L271.688,1009.52 C273.046,1014.89 277.198,1019.12 282.55,1020.58 L290.416,1022.72 C296.283,1024.31 302.513,1021.98 305.887,1016.92 C308.671,1012.75 311.357,1008.13 312.723,1006.04 C313.862,1004.31 315.262,999.707 316.289,995.929 C317.244,992.415 319.647,986.708 317.856,983.538 L309.074,967.546 L270.292,1003.99"/>
    <path fill="#BABABA" d="M425.024,948.371 L123.622,1025.67 C118.631,1026.95 113.548,1023.94 112.268,1018.95 L79.152,889.821 C77.872,884.83 80.88,879.747 85.871,878.467 L387.272,801.169 C392.263,799.889 397.347,802.897 398.626,807.888 L431.743,937.017 C433.023,942.008 430.014,947.091 425.024,948.371"/>
    <path fill="#E5E5E5" d="M423.267,945.663 L121.865,1022.96 C116.875,1024.24 111.791,1021.23 110.512,1016.24 L77.395,887.113 C76.115,882.122 79.123,877.039 84.114,875.759 L385.516,798.461 C390.507,797.181 395.59,800.19 396.87,805.18 L429.986,934.309 C431.266,939.3 428.258,944.383 423.267,945.663"/>
    <path fill="#BABABA" d="M404.499,968.463 L93.587,980.758 C88.438,980.961 84.099,976.953 83.896,971.804 L78.629,838.601 C78.425,833.453 82.434,829.114 87.582,828.91 L398.494,816.615 C403.642,816.412 407.981,820.421 408.185,825.569 L413.452,958.772 C413.656,963.921 409.647,968.259 404.499,968.463"/>
    <path fill="#E5E5E5" d="M402.606,966.186 L91.694,978.481 C86.546,978.684 82.207,974.676 82.003,969.527 L76.735,836.324 C76.532,831.176 80.541,826.837 85.689,826.633 L396.602,814.338 C401.75,814.135 406.089,818.144 406.292,823.292 L411.559,956.495 C411.763,961.644 407.755,965.982 402.606,966.186"/>
    <path fill="#BABABA" d="M443.107,898.255 L147.976,1009.97 C144.297,1011.36 140.185,1009.51 138.792,1005.83 L90.038,877.029 C88.645,873.349 90.499,869.238 94.178,867.846 L389.309,756.13 C392.989,754.738 397.1,756.591 398.493,760.271 L447.248,889.071 C448.64,892.751 446.787,896.862 443.107,898.255"/>
    <path fill="#E5E5E5" d="M443.775,895.116 L148.643,1006.83 C144.964,1008.22 140.852,1006.37 139.46,1002.69 L90.705,873.89 C89.313,870.21 91.166,866.099 94.846,864.706 L389.977,752.991 C393.656,751.598 397.767,753.452 399.161,757.131 L447.915,885.932 C449.307,889.612 447.454,893.723 443.775,895.116"/>
    <path fill="#FCC" d="M241.169,913.712 C239.779,923.594 235.109,933.066 227.221,940.384 C214.767,951.934 197.518,955.082 182.466,950.092 C175.502,947.792 169.011,943.747 163.674,937.993 C146.787,919.785 147.857,891.334 166.065,874.446 C184.273,857.559 212.724,858.63 229.612,876.837 C239.188,887.157 242.99,900.779 241.169,913.712"/>
    <polyline fill="#BABABA" points="252.488 864.805 248.16 853.371 382.541 802.504 386.869 813.938 252.488 864.805"/>
    <polyline fill="#BABABA" points="267.258 903.804 265.165 898.277 327.332 874.746 329.424 880.272 267.258 903.804"/>
    <polyline fill="#BABABA" points="272.811 918.475 270.78 913.109 356.803 880.547 358.834 885.913 272.811 918.475"/>
    <path fill="#4665D3" d="M241.169,913.712 C239.779,923.594 235.109,933.066 227.221,940.384 C214.767,951.934 197.518,955.082 182.466,950.092 C182.466,939.953 182.938,921.669 186.309,917.673 C187.386,916.401 189.172,914.928 191.403,913.42 L191.403,913.413 C197.157,909.514 205.809,905.372 212.446,903.822 L212.453,903.822 C214.531,903.329 216.414,903.1 217.95,903.211 C222.586,903.544 232.927,908.972 241.169,913.712"/>
    <path fill="#78E2EA" d="M212.453,903.822 L212.453,913.746 L202.717,907.415 L202.717,920.071 L191.403,913.42 L191.403,913.413 C197.157,909.514 205.809,905.372 212.446,903.822 L212.453,903.822"/>
    <path fill="#D3B981" d="M207.209,892.867 C207.209,900.901 200.696,907.414 192.662,907.414 C184.627,907.414 178.114,900.901 178.114,892.867 C178.114,884.833 184.627,878.32 192.662,878.32 C200.696,878.32 207.209,884.833 207.209,892.867"/>
    <path fill="#879B8E" d="M305.035,980.295 C296.702,987.787 274.596,1013.53 260.509,1012.34 C249.244,990.094 190.367,858.317 186.593,851.207 C182.82,844.098 194.745,774.04 200.736,747.875 C206.727,721.709 218.499,666.072 253.956,634.653 C253.956,634.653 281.677,614.666 302.519,644.632 C322.089,672.771 305.841,689.658 302.352,700.458 C300.191,707.15 279.662,743.705 264.54,776.076 C263.685,777.903 262.851,779.718 262.038,781.51 C261.287,783.151 260.565,784.777 259.856,786.382 C259.314,787.612 258.785,788.821 258.278,790.024 C257.798,791.142 257.333,792.254 256.874,793.345 C256.416,794.437 255.978,795.521 255.554,796.584 C255.019,797.911 254.505,799.218 254.025,800.496 C253.865,800.906 253.713,801.31 253.567,801.719 C252.302,805.09 251.232,808.252 250.391,811.143 C250.265,811.574 250.14,812.005 250.029,812.422 C249.932,812.776 249.835,813.131 249.744,813.478 C249.661,813.777 249.584,814.076 249.515,814.368 C249.425,814.729 249.341,815.084 249.265,815.438 C249.168,815.834 249.084,816.217 249.015,816.598 C248.952,816.877 248.896,817.155 248.848,817.432 C248.813,817.613 248.778,817.794 248.751,817.967 C248.702,818.246 248.66,818.517 248.618,818.781 C248.577,819.059 248.535,819.33 248.5,819.594 C248.486,819.705 248.472,819.816 248.459,819.927 C248.424,820.219 248.396,820.497 248.375,820.775 C248.347,821.06 248.334,821.345 248.32,821.617 L248.313,821.776 L248.299,822.033 C248.278,822.742 248.049,823.43 247.632,824.007 C247.527,824.153 247.423,824.298 247.326,824.445 C247.187,824.639 247.062,824.834 246.937,825.021 C246.652,825.459 246.395,825.89 246.165,826.307 C245.95,826.703 245.755,827.092 245.589,827.475 C245.505,827.649 245.436,827.822 245.359,827.996 C245.199,828.392 245.067,828.781 244.956,829.156 C244.907,829.316 244.866,829.462 244.831,829.615 C244.796,829.747 244.768,829.872 244.741,829.997 C244.72,830.094 244.699,830.185 244.685,830.275 C244.657,830.428 244.636,830.574 244.615,830.713 C244.594,830.859 244.581,830.998 244.567,831.137 C244.539,831.415 244.525,831.693 244.525,831.957 C244.525,832.207 244.539,832.45 244.56,832.687 L244.567,832.784 C244.594,833.034 244.63,833.278 244.678,833.514 C244.748,833.875 244.845,834.216 244.956,834.535 C244.991,834.64 245.026,834.73 245.067,834.827 C245.331,835.494 245.665,836.064 246.019,836.544 C246.103,836.662 246.193,836.78 246.283,836.884 L246.45,837.086 C247.423,838.288 247.937,839.796 247.812,841.339 L247.735,842.367 L247.118,850.144 C247.118,850.144 248.042,852.771 249.668,857.274 C251.516,862.382 254.255,869.902 257.576,878.755 C271.204,915.081 294.513,973.846 305.035,980.295"/>
    <path fill="#664818" d="M411.175,550.355 C408.764,550.577 408.167,549.889 411.127,547.582 C411.092,548.207 411.071,549.18 411.175,550.355"/>
    <path fill="#AD7844" d="M401.105 574.914C400.772 574.775 400.473 574.657 400.14 574.907 391.974 581.037 389.09 592.538 377.915 594.54 377.915 594.54 384.378 589.883 386.929 583.219 389.479 576.561 387.185 562.873 401.105 574.914M418.901 544.012L411.62 544.796C411.62 544.796 411.162 547.123 411.127 547.582 411.092 548.207 411.071 549.18 411.175 550.355 411.252 551.23 411.398 552.217 411.662 553.238L392.676 552.022C392.676 552.022 411.867 541.323 410.152 527.608 407.367 505.328 389.51 506.082 401.105 498.886 406.873 495.307 399.695 480.423 390.028 461.782 397.616 471.912 406.512 487.697 411.093 495.977 411.606 496.905 411.648 497.932 411.638 498.993 411.621 500.917 410.426 502.189 409.48 503.029L409.448 503.057C407.582 504.74 407.359 507.596 408.767 509.678 412.21 514.767 420.211 527.325 422.732 537.63 423.043 538.9 422.958 540.206 422.493 541.319 421.88 542.784 420.471 543.764 418.901 544.012"/>
    <path fill="#664818" d="M387.648,557.818 C388.688,555.542 389.092,553.594 392.679,552.023 C397.569,549.881 409.683,547.661 411.246,547.494 C414.865,547.11 414.772,550.649 414.92,552.322 C414.97,552.823 415.259,554.744 415.46,556.053 C415.567,556.756 415.086,557.409 414.384,557.517 C411.182,558.009 402.98,559.278 402.035,559.504 C400.987,559.754 388.944,561.491 386.774,561.702 C386.572,561.722 387.344,558.486 387.648,557.818"/>
    <path fill="#ACACAC" d="M244.525,831.957 C244.525,831.693 244.539,831.415 244.567,831.137 C244.581,830.998 244.594,830.859 244.615,830.713 C244.636,830.574 244.657,830.428 244.685,830.275 C244.699,830.185 244.72,830.094 244.741,829.997 C244.768,829.872 244.796,829.747 244.831,829.615 C244.866,829.462 244.907,829.316 244.956,829.156 C245.067,828.781 245.199,828.392 245.359,827.996 C245.436,827.822 245.505,827.649 245.589,827.475 C245.755,827.092 245.95,826.703 246.165,826.307 C246.395,825.89 246.652,825.459 246.937,825.021 C247.062,824.834 247.187,824.639 247.326,824.445 C247.341,824.422 247.357,824.399 247.372,824.376 C247.357,824.399 247.341,824.422 247.326,824.445 C247.187,824.639 247.062,824.834 246.937,825.021 C246.652,825.459 246.395,825.89 246.165,826.307 C245.95,826.703 245.755,827.092 245.589,827.475 C245.505,827.649 245.436,827.822 245.359,827.996 C245.199,828.392 245.067,828.781 244.956,829.156 C244.907,829.316 244.866,829.462 244.831,829.615 C244.796,829.747 244.768,829.872 244.741,829.997 C244.72,830.094 244.699,830.185 244.685,830.275 C244.657,830.428 244.636,830.574 244.615,830.713 C244.594,830.859 244.581,830.998 244.567,831.137 C244.539,831.415 244.525,831.693 244.525,831.957 M247.373,824.375 C247.377,824.368 247.382,824.362 247.387,824.355 C247.382,824.362 247.377,824.368 247.373,824.375 M248.313,821.776 L248.32,821.617 C248.334,821.345 248.347,821.06 248.375,820.775 C248.396,820.497 248.424,820.219 248.459,819.927 C248.472,819.816 248.486,819.705 248.5,819.594 C248.535,819.33 248.577,819.059 248.618,818.781 C248.66,818.517 248.702,818.246 248.751,817.967 C248.778,817.794 248.813,817.613 248.848,817.432 C248.896,817.155 248.952,816.877 249.015,816.598 C249.084,816.217 249.168,815.834 249.265,815.438 C249.341,815.084 249.425,814.729 249.515,814.368 C249.584,814.076 249.661,813.777 249.744,813.478 C249.835,813.131 249.932,812.776 250.029,812.422 C250.14,812.005 250.265,811.574 250.391,811.143 C250.945,809.237 251.599,807.213 252.343,805.089 C251.599,807.213 250.945,809.237 250.391,811.143 C250.265,811.574 250.14,812.005 250.029,812.422 C249.932,812.776 249.835,813.131 249.744,813.478 C249.661,813.777 249.584,814.076 249.515,814.368 C249.425,814.729 249.341,815.091 249.265,815.438 C249.174,815.834 249.091,816.217 249.015,816.598 C248.952,816.877 248.896,817.155 248.848,817.432 C248.813,817.613 248.778,817.794 248.751,817.967 C248.702,818.246 248.66,818.517 248.618,818.781 C248.577,819.059 248.535,819.33 248.5,819.594 C248.486,819.705 248.472,819.816 248.459,819.927 C248.424,820.219 248.396,820.497 248.375,820.775 C248.347,821.06 248.334,821.345 248.32,821.617 L248.313,821.776"/>
    <path fill="#65746A" d="M257.576,878.755 L233.087,853.132 C231.814,851.801 232.802,849.654 234.546,849.654 C234.645,849.654 234.747,849.661 234.851,849.675 C235.946,849.827 237.069,849.929 238.119,849.929 C239.478,849.929 240.716,849.759 241.613,849.31 C245.31,847.468 245.213,845.461 243.525,842.178 C242.877,840.918 241.872,840.477 240.295,840.477 C237.915,840.477 234.234,841.478 228.512,842.178 C227.854,842.258 227.259,842.295 226.723,842.295 C223.035,842.296 222.141,840.523 222.758,838.751 C223.374,836.98 225.502,835.208 227.859,835.208 C228.053,835.208 228.248,835.219 228.444,835.244 C230.374,835.491 232.27,835.636 233.983,835.636 C236.994,835.636 239.439,835.189 240.511,834.068 C241.721,832.801 243.191,830.567 239.077,827.384 C235.393,824.535 230.333,820.744 231.912,817.078 C241.157,795.617 249.644,798.581 264.54,776.076 C263.685,777.903 262.851,779.718 262.038,781.51 C261.287,783.151 260.558,784.777 259.856,786.382 C259.314,787.612 258.785,788.821 258.278,790.024 C257.792,791.142 257.326,792.254 256.874,793.345 C256.416,794.437 255.978,795.521 255.554,796.584 C255.019,797.911 254.505,799.218 254.025,800.496 C253.865,800.906 253.713,801.31 253.567,801.719 C253.136,802.868 252.727,803.992 252.343,805.089 C251.599,807.213 250.945,809.237 250.391,811.143 C250.265,811.574 250.14,812.005 250.029,812.422 C249.932,812.776 249.835,813.131 249.744,813.478 C249.661,813.777 249.584,814.076 249.515,814.368 C249.425,814.729 249.341,815.084 249.265,815.438 C249.168,815.834 249.084,816.217 249.015,816.598 C248.952,816.877 248.896,817.155 248.848,817.432 C248.813,817.613 248.778,817.794 248.751,817.967 C248.702,818.246 248.66,818.517 248.618,818.781 C248.577,819.059 248.535,819.33 248.5,819.594 C248.486,819.705 248.472,819.816 248.459,819.927 C248.424,820.219 248.396,820.497 248.375,820.775 C248.347,821.06 248.334,821.345 248.32,821.617 L248.313,821.776 L248.299,821.997 C248.283,822.746 248.016,823.467 247.581,824.077 C247.515,824.169 247.45,824.262 247.387,824.355 C247.382,824.362 247.377,824.368 247.373,824.375 C247.372,824.376 247.372,824.376 247.372,824.376 C247.357,824.399 247.341,824.422 247.326,824.445 C247.187,824.639 247.062,824.834 246.937,825.021 C246.652,825.459 246.395,825.89 246.165,826.307 C245.95,826.703 245.755,827.092 245.589,827.475 C245.505,827.649 245.436,827.822 245.359,827.996 C245.199,828.392 245.067,828.781 244.956,829.156 C244.907,829.316 244.866,829.462 244.831,829.615 C244.796,829.747 244.768,829.872 244.741,829.997 C244.72,830.094 244.699,830.185 244.685,830.275 C244.657,830.428 244.636,830.574 244.615,830.713 C244.594,830.859 244.581,830.998 244.567,831.137 C244.539,831.415 244.525,831.693 244.525,831.957 C244.525,832.207 244.539,832.45 244.56,832.687 L244.567,832.784 C244.594,833.034 244.63,833.278 244.678,833.514 C244.748,833.875 244.845,834.216 244.956,834.535 C244.991,834.64 245.026,834.73 245.067,834.827 C245.331,835.494 245.665,836.064 246.019,836.544 C246.103,836.662 246.193,836.78 246.283,836.884 L246.45,837.086 C247.324,838.166 247.828,839.493 247.831,840.87 C247.831,841.026 247.825,841.182 247.812,841.339 L247.735,842.367 L247.118,850.144 C247.118,850.144 248.042,852.771 249.668,857.274 C251.516,862.382 254.255,869.902 257.576,878.755"/>
  </g>
</svg>
